<svg width="448" height="110" viewBox="0 0 448 110" fill="none" xmlns="http://www.w3.org/2000/svg">
<path d="M3.22 43V0.399998H20.98C22.86 0.399998 24.58 0.799997 26.14 1.6C27.74 2.36 29.1 3.4 30.22 4.72C31.38 6 32.28 7.46 32.92 9.1C33.56 10.7 33.88 12.34 33.88 14.02C33.88 15.78 33.58 17.48 32.98 19.12C32.38 20.76 31.52 22.22 30.4 23.5C29.32 24.78 28 25.8 26.44 26.56C24.92 27.32 23.22 27.7 21.34 27.7H8.62V43H3.22ZM8.62 22.9H21.04C22.16 22.9 23.16 22.68 24.04 22.24C24.96 21.76 25.74 21.12 26.38 20.32C27.02 19.48 27.52 18.52 27.88 17.44C28.24 16.36 28.42 15.22 28.42 14.02C28.42 12.78 28.2 11.62 27.76 10.54C27.36 9.46 26.8 8.52 26.08 7.72C25.4 6.92 24.58 6.3 23.62 5.86C22.7 5.42 21.72 5.2 20.68 5.2H8.62V22.9ZM53.0341 43.6C50.6741 43.6 48.5141 43.18 46.5541 42.34C44.5941 41.46 42.9141 40.28 41.5141 38.8C40.1141 37.32 39.0141 35.6 38.2141 33.64C37.4541 31.64 37.0741 29.54 37.0741 27.34C37.0741 25.14 37.4541 23.06 38.2141 21.1C39.0141 19.14 40.1141 17.42 41.5141 15.94C42.9541 14.46 44.6541 13.3 46.6141 12.46C48.5741 11.58 50.7341 11.14 53.0941 11.14C55.4541 11.14 57.5941 11.58 59.5141 12.46C61.4741 13.34 63.1341 14.52 64.4941 16C65.8541 17.44 66.8941 19.14 67.6141 21.1C68.3741 23.02 68.7541 25.02 68.7541 27.1C68.7541 27.54 68.7341 27.94 68.6941 28.3C68.6941 28.66 68.6741 28.94 68.6341 29.14H42.6541C42.7741 30.7 43.1341 32.12 43.7341 33.4C44.3341 34.68 45.1141 35.78 46.0741 36.7C47.0341 37.62 48.1141 38.34 49.3141 38.86C50.5541 39.38 51.8541 39.64 53.2141 39.64C54.1741 39.64 55.1141 39.52 56.0341 39.28C56.9541 39 57.8141 38.64 58.6141 38.2C59.4141 37.76 60.1141 37.22 60.7141 36.58C61.3541 35.94 61.8341 35.22 62.1541 34.42L66.7141 35.68C66.1941 36.84 65.4741 37.9 64.5541 38.86C63.6741 39.82 62.6341 40.66 61.4341 41.38C60.2741 42.06 58.9741 42.6 57.5341 43C56.0941 43.4 54.5941 43.6 53.0341 43.6ZM63.7741 25.24C63.6541 23.76 63.2741 22.4 62.6341 21.16C62.0341 19.88 61.2541 18.8 60.2941 17.92C59.3741 17.04 58.2941 16.36 57.0541 15.88C55.8141 15.36 54.4941 15.1 53.0941 15.1C51.6941 15.1 50.3741 15.36 49.1341 15.88C47.8941 16.36 46.7941 17.06 45.8341 17.98C44.9141 18.86 44.1541 19.92 43.5541 21.16C42.9941 22.4 42.6541 23.76 42.5341 25.24H63.7741ZM100.003 43H94.8433V16.24H79.9033V43H74.7433V11.68H100.003V43ZM104.646 38.68C105.926 38.56 106.986 38.26 107.826 37.78C108.706 37.26 109.426 36.36 109.986 35.08C110.586 33.76 111.086 31.94 111.486 29.62C111.886 27.26 112.286 24.2 112.686 20.44L113.646 11.68H133.146V43H127.986V15.82H118.506L117.606 22.6C117.046 26.68 116.446 30.04 115.806 32.68C115.206 35.28 114.446 37.36 113.526 38.92C112.606 40.44 111.506 41.52 110.226 42.16C108.946 42.8 107.386 43.18 105.546 43.3L104.646 38.68ZM147.052 35.56L164.092 11.68H168.352V43H163.192V19.6L146.452 43H141.892V11.68H147.052V35.56ZM195.825 11.68H201.705L189.405 26.92L202.545 43H196.725L185.985 29.26H182.325V43H177.165V11.68H182.325V25.3H185.385L195.825 11.68ZM212.325 35.56L229.365 11.68H233.625V43H228.465V19.6L211.725 43H207.165V11.68H212.325V35.56ZM276.274 11.68H282.154L269.854 26.92L282.994 43H277.174L266.434 29.26H262.774V43H257.614V11.68H262.774V25.3H265.834L276.274 11.68ZM295.007 43.6C293.527 43.6 292.147 43.36 290.867 42.88C289.587 42.36 288.467 41.66 287.507 40.78C286.587 39.9 285.847 38.88 285.287 37.72C284.767 36.52 284.507 35.22 284.507 33.82C284.507 32.38 284.827 31.08 285.467 29.92C286.107 28.72 287.007 27.7 288.167 26.86C289.367 26.02 290.767 25.36 292.367 24.88C294.007 24.4 295.787 24.16 297.707 24.16C299.227 24.16 300.767 24.3 302.327 24.58C303.887 24.86 305.267 25.24 306.467 25.72V23.2C306.467 20.64 305.747 18.64 304.307 17.2C302.867 15.72 300.827 14.98 298.187 14.98C295.027 14.98 291.707 16.2 288.227 18.64L286.487 15.22C290.527 12.5 294.587 11.14 298.667 11.14C302.787 11.14 305.987 12.24 308.267 14.44C310.587 16.64 311.747 19.74 311.747 23.74V36.52C311.747 37.76 312.307 38.4 313.427 38.44V43C312.867 43.08 312.407 43.14 312.047 43.18C311.687 43.22 311.307 43.24 310.907 43.24C309.867 43.24 309.027 42.94 308.387 42.34C307.787 41.7 307.427 40.94 307.307 40.06L307.187 37.84C305.787 39.72 304.007 41.16 301.847 42.16C299.727 43.12 297.447 43.6 295.007 43.6ZM296.387 39.64C298.267 39.64 300.007 39.3 301.607 38.62C303.247 37.9 304.487 36.96 305.327 35.8C306.087 35.04 306.467 34.26 306.467 33.46V28.84C303.907 27.84 301.247 27.34 298.487 27.34C295.847 27.34 293.687 27.9 292.007 29.02C290.367 30.14 289.547 31.6 289.547 33.4C289.547 34.28 289.707 35.1 290.027 35.86C290.387 36.62 290.867 37.28 291.467 37.84C292.107 38.4 292.847 38.84 293.687 39.16C294.527 39.48 295.427 39.64 296.387 39.64ZM337.228 43.6C334.628 43.6 332.328 42.96 330.328 41.68C328.368 40.4 326.808 38.78 325.648 36.82V55.78H320.368V11.68H325.048V17.56C326.288 15.64 327.888 14.1 329.848 12.94C331.848 11.74 334.048 11.14 336.448 11.14C338.608 11.14 340.588 11.58 342.388 12.46C344.188 13.34 345.748 14.54 347.068 16.06C348.388 17.54 349.408 19.26 350.128 21.22C350.888 23.18 351.268 25.22 351.268 27.34C351.268 29.58 350.928 31.7 350.248 33.7C349.568 35.66 348.608 37.38 347.368 38.86C346.128 40.3 344.648 41.46 342.928 42.34C341.208 43.18 339.308 43.6 337.228 43.6ZM335.608 39.04C337.168 39.04 338.568 38.72 339.808 38.08C341.088 37.4 342.168 36.52 343.048 35.44C343.968 34.32 344.668 33.06 345.148 31.66C345.628 30.26 345.868 28.82 345.868 27.34C345.868 25.78 345.588 24.3 345.028 22.9C344.468 21.46 343.708 20.22 342.748 19.18C341.788 18.1 340.648 17.26 339.328 16.66C338.048 16.02 336.648 15.7 335.128 15.7C334.168 15.7 333.168 15.9 332.128 16.3C331.128 16.66 330.168 17.16 329.248 17.8C328.368 18.4 327.588 19.14 326.908 20.02C326.268 20.86 325.848 21.76 325.648 22.72V31.66C326.088 32.7 326.648 33.68 327.328 34.6C328.008 35.48 328.788 36.26 329.668 36.94C330.548 37.58 331.488 38.1 332.488 38.5C333.488 38.86 334.528 39.04 335.608 39.04ZM369.822 43H364.662V16.24H354.162V11.68H380.322V16.24H369.822V43ZM391.095 35.56L408.135 11.68H412.395V43H407.235V19.6L390.495 43H385.935V11.68H391.095V35.56ZM426.368 24.7H442.208V11.68H447.368V43H442.208V29.08H426.368V43H421.208V11.68H426.368V24.7ZM15.94 109.6C13.58 109.6 11.42 109.16 9.46 108.28C7.54 107.4 5.88 106.22 4.48 104.74C3.12 103.26 2.06 101.54 1.3 99.58C0.54 97.62 0.16 95.56 0.16 93.4C0.16 91.2 0.54 89.12 1.3 87.16C2.1 85.2 3.18 83.48 4.54 82C5.94 80.52 7.6 79.34 9.52 78.46C11.48 77.58 13.62 77.14 15.94 77.14C18.26 77.14 20.4 77.58 22.36 78.46C24.32 79.34 25.98 80.52 27.34 82C28.74 83.48 29.82 85.2 30.58 87.16C31.38 89.12 31.78 91.2 31.78 93.4C31.78 95.56 31.4 97.62 30.64 99.58C29.88 101.54 28.8 103.26 27.4 104.74C26 106.22 24.32 107.4 22.36 108.28C20.44 109.16 18.3 109.6 15.94 109.6ZM5.56 93.46C5.56 95.1 5.82 96.62 6.34 98.02C6.9 99.42 7.64 100.64 8.56 101.68C9.52 102.72 10.62 103.54 11.86 104.14C13.14 104.74 14.5 105.04 15.94 105.04C17.38 105.04 18.72 104.74 19.96 104.14C21.24 103.54 22.36 102.72 23.32 101.68C24.28 100.6 25.02 99.36 25.54 97.96C26.1 96.52 26.38 94.98 26.38 93.34C26.38 91.74 26.1 90.24 25.54 88.84C25.02 87.4 24.28 86.16 23.32 85.12C22.36 84.04 21.24 83.2 19.96 82.6C18.72 82 17.38 81.7 15.94 81.7C14.5 81.7 13.14 82.02 11.86 82.66C10.62 83.26 9.52 84.1 8.56 85.18C7.64 86.22 6.9 87.46 6.34 88.9C5.82 90.3 5.56 91.82 5.56 93.46ZM50.252 109H45.092V82.24H34.592V77.68H60.752V82.24H50.252V109Z" fill="#2C2D35"/>
<path d="M82.2602 109V66.4H87.6602V109H82.2602ZM124.186 109H118.906V91.48C118.906 88.12 118.386 85.68 117.346 84.16C116.346 82.64 114.806 81.88 112.726 81.88C111.646 81.88 110.566 82.1 109.486 82.54C108.406 82.94 107.386 83.5 106.426 84.22C105.466 84.94 104.626 85.8 103.906 86.8C103.186 87.8 102.646 88.9 102.286 90.1V109H97.0061V77.68H101.806V84.4C103.046 82.2 104.826 80.44 107.146 79.12C109.506 77.8 112.066 77.14 114.826 77.14C116.626 77.14 118.126 77.48 119.326 78.16C120.526 78.8 121.486 79.72 122.206 80.92C122.926 82.08 123.426 83.46 123.706 85.06C124.026 86.66 124.186 88.4 124.186 90.28V109ZM154.477 109L143.677 93.7L137.677 99.34V109H132.397V65.2H137.677V94L153.757 77.74H159.577L147.097 90.7L160.177 109H154.477ZM164.32 109V102.28H168.76V109H164.32ZM227.145 66.4V109H221.745V89.62H198.285V109H192.885V66.4H198.285V84.82H221.745V66.4H227.145ZM249.67 109.6C247.31 109.6 245.15 109.16 243.19 108.28C241.27 107.4 239.61 106.22 238.21 104.74C236.85 103.26 235.79 101.54 235.03 99.58C234.27 97.62 233.89 95.56 233.89 93.4C233.89 91.2 234.27 89.12 235.03 87.16C235.83 85.2 236.91 83.48 238.27 82C239.67 80.52 241.33 79.34 243.25 78.46C245.21 77.58 247.35 77.14 249.67 77.14C251.99 77.14 254.13 77.58 256.09 78.46C258.05 79.34 259.71 80.52 261.07 82C262.47 83.48 263.55 85.2 264.31 87.16C265.11 89.12 265.51 91.2 265.51 93.4C265.51 95.56 265.13 97.62 264.37 99.58C263.61 101.54 262.53 103.26 261.13 104.74C259.73 106.22 258.05 107.4 256.09 108.28C254.17 109.16 252.03 109.6 249.67 109.6ZM239.29 93.46C239.29 95.1 239.55 96.62 240.07 98.02C240.63 99.42 241.37 100.64 242.29 101.68C243.25 102.72 244.35 103.54 245.59 104.14C246.87 104.74 248.23 105.04 249.67 105.04C251.11 105.04 252.45 104.74 253.69 104.14C254.97 103.54 256.09 102.72 257.05 101.68C258.01 100.6 258.75 99.36 259.27 97.96C259.83 96.52 260.11 94.98 260.11 93.34C260.11 91.74 259.83 90.24 259.27 88.84C258.75 87.4 258.01 86.16 257.05 85.12C256.09 84.04 254.97 83.2 253.69 82.6C252.45 82 251.11 81.7 249.67 81.7C248.23 81.7 246.87 82.02 245.59 82.66C244.35 83.26 243.25 84.1 242.29 85.18C241.37 86.22 240.63 87.46 240.07 88.9C239.55 90.3 239.29 91.82 239.29 93.46ZM281.568 109.6C278.288 109.6 275.808 108.5 274.128 106.3C272.448 104.1 271.608 100.82 271.608 96.46V77.68H276.888V95.44C276.888 101.84 279.108 105.04 283.548 105.04C285.708 105.04 287.728 104.36 289.608 103C291.528 101.6 292.948 99.7 293.868 97.3V77.68H299.148V102.52C299.148 103.76 299.708 104.4 300.828 104.44V109C300.228 109.08 299.748 109.12 299.388 109.12C299.068 109.16 298.748 109.18 298.428 109.18C297.388 109.18 296.508 108.88 295.788 108.28C295.108 107.64 294.748 106.86 294.708 105.94L294.588 102.28C293.188 104.64 291.348 106.46 289.068 107.74C286.788 108.98 284.288 109.6 281.568 109.6ZM318.924 109.6C316.404 109.6 313.924 109.22 311.484 108.46C309.044 107.66 306.944 106.52 305.184 105.04L307.464 101.5C309.304 102.9 311.144 103.96 312.984 104.68C314.824 105.36 316.764 105.7 318.804 105.7C321.084 105.7 322.884 105.26 324.204 104.38C325.564 103.46 326.244 102.18 326.244 100.54C326.244 99.78 326.064 99.14 325.704 98.62C325.344 98.06 324.804 97.58 324.084 97.18C323.364 96.78 322.444 96.42 321.324 96.1C320.204 95.78 318.904 95.44 317.424 95.08C315.544 94.6 313.924 94.14 312.564 93.7C311.204 93.26 310.084 92.74 309.204 92.14C308.324 91.54 307.684 90.82 307.284 89.98C306.884 89.14 306.684 88.1 306.684 86.86C306.684 85.3 306.984 83.92 307.584 82.72C308.224 81.48 309.084 80.46 310.164 79.66C311.244 78.82 312.504 78.2 313.944 77.8C315.424 77.36 317.004 77.14 318.684 77.14C321.044 77.14 323.244 77.52 325.284 78.28C327.324 79.04 329.044 80.04 330.444 81.28L328.044 84.46C326.724 83.3 325.244 82.44 323.604 81.88C321.964 81.28 320.284 80.98 318.564 80.98C316.644 80.98 315.004 81.4 313.644 82.24C312.324 83.04 311.664 84.34 311.664 86.14C311.664 86.86 311.784 87.46 312.024 87.94C312.304 88.42 312.744 88.84 313.344 89.2C313.944 89.56 314.704 89.88 315.624 90.16C316.584 90.44 317.724 90.74 319.044 91.06C321.124 91.54 322.924 92.04 324.444 92.56C326.004 93.04 327.284 93.62 328.284 94.3C329.324 94.98 330.084 95.78 330.564 96.7C331.084 97.62 331.344 98.74 331.344 100.06C331.344 102.98 330.224 105.3 327.984 107.02C325.744 108.74 322.724 109.6 318.924 109.6ZM351.452 109.6C349.092 109.6 346.932 109.18 344.972 108.34C343.012 107.46 341.332 106.28 339.932 104.8C338.532 103.32 337.432 101.6 336.632 99.64C335.872 97.64 335.492 95.54 335.492 93.34C335.492 91.14 335.872 89.06 336.632 87.1C337.432 85.14 338.532 83.42 339.932 81.94C341.372 80.46 343.072 79.3 345.032 78.46C346.992 77.58 349.152 77.14 351.512 77.14C353.872 77.14 356.012 77.58 357.932 78.46C359.892 79.34 361.552 80.52 362.912 82C364.272 83.44 365.312 85.14 366.032 87.1C366.792 89.02 367.172 91.02 367.172 93.1C367.172 93.54 367.152 93.94 367.112 94.3C367.112 94.66 367.092 94.94 367.052 95.14H341.072C341.192 96.7 341.552 98.12 342.152 99.4C342.752 100.68 343.532 101.78 344.492 102.7C345.452 103.62 346.532 104.34 347.732 104.86C348.972 105.38 350.272 105.64 351.632 105.64C352.592 105.64 353.532 105.52 354.452 105.28C355.372 105 356.232 104.64 357.032 104.2C357.832 103.76 358.532 103.22 359.132 102.58C359.772 101.94 360.252 101.22 360.572 100.42L365.132 101.68C364.612 102.84 363.892 103.9 362.972 104.86C362.092 105.82 361.052 106.66 359.852 107.38C358.692 108.06 357.392 108.6 355.952 109C354.512 109.4 353.012 109.6 351.452 109.6ZM362.192 91.24C362.072 89.76 361.692 88.4 361.052 87.16C360.452 85.88 359.672 84.8 358.712 83.92C357.792 83.04 356.712 82.36 355.472 81.88C354.232 81.36 352.912 81.1 351.512 81.1C350.112 81.1 348.792 81.36 347.552 81.88C346.312 82.36 345.212 83.06 344.252 83.98C343.332 84.86 342.572 85.92 341.972 87.16C341.412 88.4 341.072 89.76 340.952 91.24H362.192Z" fill="#598D66"/>
</svg>
